<?xml version="1.0" standalone="no"?>
<!DOCTYPE svg PUBLIC "-//W3C//DTD SVG 20010904//EN"
 "http://www.w3.org/TR/2001/REC-SVG-20010904/DTD/svg10.dtd">
<svg version="1.0" xmlns="http://www.w3.org/2000/svg"
 width="72.000000pt" height="72.000000pt" viewBox="0 0 72.000000 72.000000"
 preserveAspectRatio="xMidYMid meet">

<g transform="translate(0.000000,72.000000) scale(0.100000,-0.100000)"
fill="#000000" stroke="none">
<path d="M220 570 l-125 -58 -3 -41 c-3 -41 -3 -41 32 -41 l36 0 0 -125 0
-125 -25 0 c-18 0 -25 -5 -25 -20 0 -11 -4 -20 -10 -20 -5 0 -10 -11 -10 -25
l0 -25 270 0 270 0 0 25 c0 14 -4 25 -10 25 -5 0 -10 9 -10 20 0 15 -7 20 -25
20 l-25 0 0 125 0 125 36 0 c35 0 35 0 32 41 l-3 41 -129 59 c-71 32 -134 59
-140 58 -6 0 -67 -27 -136 -59z m252 -37 c59 -27 108 -51 108 -55 0 -5 -99 -8
-220 -8 -121 0 -220 3 -220 8 1 7 196 99 215 101 6 1 58 -20 117 -46z m-222
-228 l0 -125 -25 0 -25 0 0 125 0 125 25 0 25 0 0 -125z m90 0 l0 -125 -25 0
-25 0 0 125 0 125 25 0 25 0 0 -125z m90 0 l0 -125 -25 0 -25 0 0 125 0 125
25 0 25 0 0 -125z m90 0 l0 -125 -25 0 -25 0 0 125 0 125 25 0 25 0 0 -125z"/>
</g>
</svg>
